# xmcd CD database generated by RipIT
#
# Track frame offsets:
# 150
# 18258
# 36093
# 50678
# 73231
# 90226
# 110782
# 128291
# 146977
# 167637
# 199979
# 227049
#
# Disc length: 3328 seconds
#
# Revision: 4
# Processed by: cddbd v1.5.2PL0 Copyright (c) Steve Scherf et al.
# Submitted via: RipIT 3.7.0-beta20081019 www.suwald.com/ripit/ripit.html on 2009-01-04 at 08:56
#
DISCID=a60cfe0c
DTITLE=Sam Bush - Laps In Seven
DYEAR=2006
DGENRE=Bluegrass
TTITLE0=The River's Gonna Run
TTITLE1=Bringing In The Georgia Mail
TTITLE2=The Dolphin Dance
TTITLE3=On The Road
TTITLE4=Ridin' That Bluegrass Train
TTITLE5=I Wanna Do Right
TTITLE6=Where There's A Road
TTITLE7=New Country
TTITLE8=Ballad For A Soldier
TTITLE9=River Take Me
TTITLE10=White Bird
TTITLE11=Laps In Seven
EXTD=
EXTT0=
EXTT1=
EXTT2=
EXTT3=
EXTT4=
EXTT5=
EXTT6=
EXTT7=
EXTT8=
EXTT9=
EXTT10=
EXTT11=
PLAYORDER=
